<svg version="1.1" id="Layer_1" xmlns="http://www.w3.org/2000/svg" xmlns:xlink="http://www.w3.org/1999/xlink" x="0px" y="0px"
	 width="100%" viewBox="0 138 690 690" enable-background="new 0 0 672 1024" xml:space="preserve">
<path fill="#000000" opacity="1.000000" stroke="none" 
	d="
M450.757263,600.401428 
	C445.155273,600.551697 439.994598,600.719116 434.832703,600.830017 
	C431.232727,600.907349 428.395142,599.763123 426.861176,596.133850 
	C426.090851,594.311401 425.025696,592.537903 423.768616,591.009766 
	C418.093933,584.111633 416.554657,577.160278 422.615173,569.575623 
	C424.730560,566.928223 423.719116,564.474426 421.347443,562.123840 
	C403.948944,544.879883 386.603302,527.581726 369.358887,510.183899 
	C366.605957,507.406494 364.218079,506.887482 360.565216,508.552826 
	C347.241638,514.627014 347.199219,514.500488 347.224060,529.216309 
	C347.257202,548.882690 347.263885,568.549011 347.281494,588.215393 
	C347.283112,590.014893 347.281738,591.814331 347.281738,593.507812 
	C358.568756,595.803345 366.819489,607.209106 368.231293,618.170959 
	C369.791443,630.284485 362.619995,636.901062 355.434601,644.045105 
	C353.616333,645.852905 351.084015,645.785095 348.830963,645.840942 
	C343.506256,645.972839 338.172546,645.686829 332.842072,645.664795 
	C330.603241,645.655579 329.197754,644.436951 327.762421,642.941711 
	C315.818359,630.499023 315.240082,628.840210 316.637848,611.496887 
	C316.796661,609.526489 317.524292,608.012268 318.827179,606.631653 
	C322.029083,603.238586 325.208801,599.824341 328.376831,596.399597 
	C329.436493,595.254089 330.705200,594.241516 332.230927,594.322998 
	C337.163300,594.586426 337.756470,591.832947 337.727478,587.722595 
	C337.572388,565.723938 337.519867,543.722473 337.726532,521.724792 
	C337.773987,516.670898 336.040985,513.893250 331.380096,511.825684 
	C318.445038,506.087738 321.192047,504.626587 310.021881,515.784668 
	C294.694000,531.095947 279.452271,546.494751 263.988892,561.667725 
	C260.985291,564.614868 259.878479,567.268494 262.669830,570.585388 
	C268.210663,577.169312 266.417511,582.767090 262.404297,589.799744 
	C257.483734,598.422485 251.793213,601.646729 241.798233,601.298218 
	C233.493622,601.008850 228.474823,598.946350 224.508148,591.420288 
	C216.906830,576.997925 216.009186,582.331116 224.624084,566.784119 
	C228.539581,559.717957 232.999664,556.144104 241.044891,557.661499 
	C250.581970,559.460388 257.118683,555.125488 263.518433,548.303894 
	C277.301910,533.611816 291.849823,519.634277 306.175659,505.456024 
	C308.881775,502.777740 310.607849,500.250183 308.790527,496.281616 
	C308.061554,494.689728 307.931152,492.671112 308.039429,490.877563 
	C308.338806,485.918457 306.228027,484.167145 301.266235,484.204987 
	C278.267944,484.380341 255.267212,484.334625 232.268112,484.217987 
	C228.920517,484.201050 227.282059,485.036072 226.373917,488.574951 
	C224.952423,494.114197 219.633667,497.036591 216.444473,501.419922 
	C212.602997,506.699799 207.410751,506.206024 202.032974,505.583771 
	C201.867462,505.564636 201.690201,505.508179 201.536606,505.545013 
	C189.590179,508.410889 183.908096,499.770813 177.456085,492.490051 
	C176.144089,491.009491 175.639832,489.370056 175.682861,487.462097 
	C175.716675,485.962860 175.945923,484.410828 175.653564,482.970490 
	C173.337646,471.560455 179.062469,463.632660 186.901306,456.581757 
	C187.272812,456.247559 187.602890,455.863556 187.993362,455.554749 
	C192.265564,452.175995 211.657410,453.361053 215.444702,457.273376 
	C218.341843,460.266113 221.167953,463.328003 224.003586,466.379669 
	C224.680725,467.108429 225.820267,467.923096 225.814331,468.691071 
	C225.756989,476.125336 231.084641,474.724823 235.516693,474.726379 
	C257.183044,474.733948 278.850769,474.577606 300.514801,474.796570 
	C305.688660,474.848877 307.513428,473.279694 308.476562,467.983215 
	C309.866119,460.341705 308.111053,455.122894 302.372681,449.695068 
	C287.125397,435.272888 272.529083,420.159210 257.787628,405.208435 
	C255.162842,402.546387 252.476166,400.549530 248.637405,401.367462 
	C234.542618,404.370697 225.906540,398.510162 220.570450,385.487396 
	C218.703003,380.929932 218.460892,378.010162 220.568069,373.299622 
	C226.365219,360.340149 235.411407,355.479980 249.275635,357.741852 
	C253.084351,358.363220 255.877716,359.025299 257.631653,362.575958 
	C258.511993,364.358063 259.600311,366.084106 260.849548,367.629333 
	C266.617798,374.764099 268.767456,381.957275 261.894958,389.717163 
	C259.870148,392.003448 260.597382,394.185730 262.687683,396.260529 
	C280.300415,413.742249 297.882324,431.255157 315.424866,448.807312 
	C317.957184,451.340942 320.252747,450.815186 323.482239,449.857544 
	C335.303680,446.352173 338.721283,439.050720 337.948486,426.883240 
	C336.757172,408.125488 337.583588,389.236847 337.657990,370.404114 
	C337.670746,367.179810 337.348694,364.709778 333.231110,364.990234 
	C331.222839,365.126953 329.866730,363.776611 328.517426,362.502136 
	C316.715820,351.355164 316.874817,351.354828 316.564148,335.044617 
	C316.471863,330.198547 318.167786,326.803497 321.086731,323.033081 
	C326.951874,315.457001 333.731049,312.859924 343.538666,312.564301 
	C356.313843,312.179260 363.182159,320.188110 366.842896,328.689026 
	C370.008942,336.041138 371.683197,346.707062 363.774628,354.295593 
	C359.326599,358.563629 356.247742,364.680573 349.003235,365.384125 
	C347.075684,365.571350 347.302551,367.601379 347.300293,369.067841 
	C347.263977,392.567261 347.273773,416.066772 347.197083,439.566010 
	C347.188995,442.047211 347.920654,443.679108 350.363800,444.530701 
	C352.245850,445.186707 354.046967,446.084595 355.860931,446.924805 
	C366.157166,451.693787 366.269958,451.815643 374.477112,443.717865 
	C390.016785,428.385162 405.339020,412.831696 420.922729,397.544434 
	C424.120514,394.407501 424.774902,391.675018 422.031036,388.111603 
	C417.396851,382.093292 417.721832,376.520233 422.261749,370.169647 
	C432.594971,355.715118 426.372833,358.605255 444.067657,357.775574 
	C451.551239,357.424683 455.407898,360.296631 459.695282,366.136505 
	C466.446320,375.332031 468.245178,383.409119 460.083435,392.336609 
	C458.878571,393.654480 458.202515,395.469177 457.342834,397.086487 
	C455.703674,400.170349 453.323395,402.012726 449.693634,401.332581 
	C435.858582,398.740326 426.005402,404.387054 416.905609,414.694092 
	C405.132050,428.029602 391.883942,440.062317 379.289673,452.674896 
	C376.459015,455.509766 373.632385,458.177948 375.988129,462.973419 
	C376.932251,464.895355 376.303802,467.568665 376.482056,469.893005 
	C376.725311,473.064606 378.416046,474.674072 381.680908,474.673523 
	C405.680389,474.669312 429.679901,474.692963 453.679382,474.714081 
	C455.649933,474.715820 457.034302,474.426270 457.574646,471.940277 
	C459.622925,462.516602 470.611176,454.471558 479.877411,453.654541 
	C489.871613,452.773376 497.315735,455.319397 503.465118,463.642822 
	C506.640320,467.940582 507.713104,471.970490 508.532440,477.050842 
	C510.474243,489.091461 503.749878,496.388489 496.152832,503.547760 
	C493.074768,506.448425 472.180725,506.495819 469.415222,503.319733 
	C464.724945,497.933105 457.592407,494.317902 456.601898,486.097626 
	C456.368866,484.163849 454.418091,484.334045 452.941437,484.332275 
	C429.275391,484.304016 405.609314,484.303314 381.943268,484.277863 
	C378.957886,484.274658 377.427948,485.562897 377.001801,488.648895 
	C376.503906,492.254944 376.419250,495.940033 375.016571,499.422974 
	C374.189819,501.475922 375.903137,502.883301 377.160095,504.133392 
	C394.411255,521.289917 411.707092,538.401550 428.984650,555.531555 
	C430.476288,557.010437 432.101044,557.759705 434.330902,557.616638 
	C437.481720,557.414429 440.741669,558.106567 443.809631,557.575989 
	C452.038422,556.152893 455.910797,560.568726 460.314484,566.837341 
	C466.509125,575.655273 467.860016,583.181458 460.136261,591.348572 
	C457.221405,594.430725 456.980011,600.140015 450.757263,600.401428 
	C332.339569,455.192932 326.384705,458.511444 320.687805,462.291290 
	C318.395508,463.812225 317.281097,465.666718 317.334717,468.486572 
	C317.467590,475.476379 317.479706,482.471344 317.368652,489.461517 
	C317.323669,492.294586 318.391998,494.237610 320.809662,495.577148 
	C326.777771,498.883942 332.754883,502.175385 338.685242,505.548828 
	C341.081970,506.912140 343.320587,506.981476 345.738586,505.591675 
	C351.652893,502.192383 357.602783,498.853577 363.578491,495.563354 
	C366.044678,494.205475 367.040192,492.263306 366.982727,489.454651 
	C366.836273,482.298431 366.791687,475.138000 366.858032,467.980652 
	C366.882385,465.351837 365.879211,463.620850 363.673798,462.256775 
	C357.585693,458.491272 351.498749,454.741302 345.093689,451.516205 
	C342.925049,450.424225 341.011444,450.326630 338.381317,452.016022 
M354.500916,634.048645 
	C356.752441,631.085388 360.228729,629.134888 360.666412,624.728577 
	C361.485596,616.482239 360.208313,609.410583 352.981445,604.081421 
	C349.330475,601.389099 336.102356,599.822693 332.736145,602.942871 
	C329.257294,606.167419 324.316833,609.009705 323.769989,613.901245 
	C322.916595,621.534851 322.791321,629.151367 330.190826,635.016174 
	C336.347565,639.895935 348.450714,640.415039 354.500916,634.048645 
M345.178070,320.361420 
	C336.859589,318.787811 330.845123,322.238434 326.017334,328.793488 
	C323.530853,332.169556 322.676331,345.803772 325.678558,348.672119 
	C328.953613,351.801117 330.985077,356.873962 336.110840,357.407410 
	C343.937683,358.222046 351.110382,357.976868 357.159363,350.755981 
	C361.434113,345.653015 360.496674,340.641785 360.628784,335.388947 
	C360.796448,328.721588 352.848328,320.786621 345.178070,320.361420 
M219.008377,483.156647 
	C218.971664,480.333893 219.030640,477.505829 218.874054,474.689728 
	C218.677277,471.150543 211.254929,462.164886 207.977737,461.324432 
	C198.469711,458.886047 190.101257,462.108795 184.400482,470.404297 
	C182.498093,473.172577 182.129669,486.652710 184.221359,489.189270 
	C188.881424,494.840515 193.530807,500.013336 202.331207,498.861145 
	C209.449417,497.929169 217.964325,491.297272 219.008377,483.156647 
M465.016602,476.766968 
	C465.106781,482.289154 463.984833,487.726105 468.896057,492.520416 
	C473.102448,496.626648 476.839630,499.852905 483.072845,498.260956 
	C484.288330,497.950562 485.714600,498.371033 487.028290,498.560638 
	C489.353882,498.896332 491.272858,498.268097 492.834259,496.472839 
	C494.907135,494.089600 497.153961,491.847290 499.101379,489.367981 
	C501.774231,485.965210 501.498444,473.123596 499.104462,469.866119 
	C494.503479,463.605530 489.135040,460.062897 480.687531,461.064301 
	C472.983704,461.977539 465.611389,468.036987 465.016602,476.766968 
z"/>
</svg>
